<svg viewBox="0 0 32 32" height="32" width="32" xmlns="http://www.w3.org/2000/svg" xml:space="preserve" style="fill-rule:evenodd;clip-rule:evenodd;stroke-linejoin:round;stroke-miterlimit:2"><path d="M4 20c-.55 0-1.021-.196-1.412-.587A1.927 1.927 0 0 1 2 18V6c0-.55.196-1.021.588-1.413A1.926 1.926 0 0 1 4 4h6l2 2h8c.55 0 1.021.196 1.413.587.391.392.587.863.587 1.413H4v10l2.4-8h17.1l-2.575 8.575a1.954 1.954 0 0 1-.737 1.038A1.99 1.99 0 0 1 19 20H4Z" style="fill:#fff;fill-rule:nonzero" transform="translate(-.585 .369) scale(1.30233)"/></svg>